# xmcd CD database file
# Copyright (C) 1995-1998 Ti Kan
#
# Track frame offsets:
#	150
#	14506
#	28287
#	42972
#	56903
#	63790
#	70011
#	75732
#	79879
#	83276
#	87787
#	94240
#	113883
#	128850
#	140663
#	154586
#	164591
#	179044
#	189213
#	200056
#
# Disc length: 2827 seconds
#
# Revision: 1
# Processed by: cddbd v1.5.1PL0 Copyright (c) Steve Scherf et al.
# Submitted via: CDex 1.30Release
#
DISCID=110b0914
DTITLE=Leadbelly - Blues Cafe Presents Leadbelly
DYEAR=2002
DGENRE=Blues
TTITLE0=The Bourgeois Blues
TTITLE1=Look, Looky Yonder Black Betty
TTITLE2=Poor Howard Green Corn
TTITLE3=The Gallis Pole
TTITLE4=Noted Rider
TTITLE5=Big Fat Woman
TTITLE6=Burrow Love And Go
TTITLE7=Bring Me Li'l Water Silvy
TTITLE8=Julie Ann Johnson
TTITLE9=Line Em
TTITLE10=Whoe Bac Buck
TTITLE11=John Hardy
TTITLE12=In New Orleans
TTITLE13=Goodnight Irene
TTITLE14=Where Did You Sleep Last Night
TTITLE15=How Long
TTITLE16=Yellow Gal
TTITLE17=On A Monday
TTITLE18=Blue Tail Fly
TTITLE19=The Boll Weevil Song
EXTD=YEAR: 2002 ID3G:   0
EXTT0=
EXTT1=
EXTT2=
EXTT3=
EXTT4=
EXTT5=
EXTT6=
EXTT7=
EXTT8=
EXTT9=
EXTT10=
EXTT11=
EXTT12=
EXTT13=
EXTT14=
EXTT15=
EXTT16=
EXTT17=
EXTT18=
EXTT19=
PLAYORDER=
